<svg width="36" height="36" viewBox="0 0 36 36" fill="none" xmlns="http://www.w3.org/2000/svg">
<rect width="36" height="36" fill="#E5E5E5"/>
<path fill-rule="evenodd" clip-rule="evenodd" d="M29.0978 18.2927V20.3517C29.0978 21.0015 28.5662 21.5332 27.9165 21.5332H21.5074V27.9421C21.5074 28.5919 20.9757 29.1236 20.326 29.1236H15.3131C14.6634 29.1236 14.1318 28.5919 14.1318 27.9421V21.5332H7.72264C7.07292 21.5332 6.54131 21.0015 6.54131 20.3517V18.2927H14.1318C14.2993 18.2927 14.4432 18.2077 14.5238 18.0609L15.7525 15.8266L17.49 20.8044C17.5546 20.9891 17.7224 21.1068 17.9181 21.1044C18.1137 21.1019 18.2786 20.9802 18.3385 20.7939L19.9266 15.8565L21.1388 18.0609C21.2195 18.2077 21.3634 18.2927 21.5309 18.2927H29.0978V18.2927Z" fill="#80CBD3"/>
<path fill-rule="evenodd" clip-rule="evenodd" d="M29.0978 15.3389V17.3979H21.7955L20.2106 14.5156C20.1225 14.3558 19.9574 14.2684 19.7758 14.2859C19.5939 14.3034 19.4484 14.4204 19.3926 14.5943L17.8951 19.2495L16.2667 14.5838C16.2072 14.4133 16.0616 14.3005 15.8816 14.2855C15.7015 14.2704 15.5393 14.3574 15.4521 14.5156L13.8672 17.3979H6.56143L6.54131 17.3961V15.3389C6.54131 14.689 7.07292 14.1576 7.72264 14.1576H14.1318V7.74844C14.1318 7.09872 14.6634 6.56696 15.3131 6.56696H20.326C20.9757 6.56696 21.5074 7.09872 21.5074 7.74844V14.1576H27.9165C28.5662 14.1576 29.0978 14.689 29.0978 15.3389V15.3389Z" fill="#E1C7AF"/>
<path fill-rule="evenodd" clip-rule="evenodd" d="M21.4979 33.596C2.59429 36.8778 -5.52336 12.9231 10.5116 4.11696C10.5116 6.76601 10.5116 9.41521 10.5116 12.0644C7.03903 9.55329 6.50001 10.0439 5.61971 10.9073L5.61438 10.9155C-0.459984 20.0594 6.22222 34.8206 21.4979 32.303V33.596V33.596Z" fill="#F0E3C3"/>
<path fill-rule="evenodd" clip-rule="evenodd" d="M14.795 2.17415C33.6986 -1.1076 41.8164 22.8471 25.7814 31.6532C25.7814 29.0042 25.7814 26.3548 25.7814 23.7058C29.2538 26.2169 29.7928 25.7261 30.6731 24.8629L30.6785 24.8547C36.753 15.7108 30.0708 0.949603 14.795 3.46723V2.17415V2.17415Z" fill="#F0E3C3"/>
<path fill-rule="evenodd" clip-rule="evenodd" d="M21.5504 35.4896C16.7774 36.1132 11.981 35.3407 7.95352 32.6047C4.52273 30.2742 2.07674 26.7781 0.968364 22.7901C-0.0273803 19.2073 0.106708 15.3509 1.41518 11.8649C2.8897 7.93699 5.68527 4.83432 9.26095 2.68358L9.76978 2.37752V10.6745L9.19776 10.1081C8.30532 9.22429 6.98604 8.26377 5.65567 8.68986C5.17097 8.84512 4.64557 9.23036 4.36023 9.65838L4.35934 9.65956C1.80782 13.7118 1.30921 18.6775 2.85107 23.1937C4.02664 26.6374 6.32108 29.6005 9.42331 31.5183C13.0474 33.7584 17.2942 34.2868 21.4523 33.6015L21.8426 33.5373V35.4514L21.5504 35.4896V35.4896Z" fill="#FEFEFE"/>
<path fill-rule="evenodd" clip-rule="evenodd" d="M14.7426 0.280284C19.5154 -0.34324 24.3118 0.429321 28.3393 3.16525C31.7701 5.49566 34.2163 8.99186 35.3246 12.9799C36.3202 16.5625 36.1863 20.4191 34.8777 23.9049C33.4033 27.833 30.6077 30.9357 27.032 33.0864L26.5232 33.3925V25.0954L27.0952 25.6618C27.9875 26.5457 29.3068 27.5062 30.6372 27.0801C31.122 26.9249 31.6474 26.5396 31.9328 26.1116L31.9337 26.1104C34.485 22.058 34.9838 17.0925 33.4419 12.5763C32.2664 9.13261 29.9719 6.1695 26.8695 4.25172C23.2456 2.01159 18.9986 1.48308 14.8406 2.16847L14.4503 2.2327V0.318468L14.7426 0.280284V0.280284Z" fill="#FEFEFE"/>
<path fill-rule="evenodd" clip-rule="evenodd" d="M21.5069 35.1567C0.885039 37.8509 -6.87801 12.7826 9.43396 2.97128V3.69338V4.0801V9.86956C6.10722 6.57449 4.19698 9.29858 4.0808 9.47204L4.07666 9.4784L4.07518 9.48062C-2.71728 20.4365 5.46534 36.5766 21.5069 33.9327V35.1567V35.1567Z" fill="#2CB7BE"/>
<path fill-rule="evenodd" clip-rule="evenodd" d="M14.7861 0.613498C35.4078 -2.08084 43.1709 22.9875 26.8589 32.7989V32.0768V31.6899V25.9006C30.1856 29.1955 32.096 26.4716 32.212 26.298L32.2163 26.2918L32.2177 26.2896C39.0101 15.3337 30.8275 -0.806562 14.7861 1.83731V0.613498V0.613498Z" fill="#2CB7BE"/>
<path fill-rule="evenodd" clip-rule="evenodd" d="M3.77355 27.9908C2.8968 26.1886 2.34743 24.1982 2.20135 22.0966C4.12239 29.5614 11.1881 35.6334 21.5069 33.9327V35.1567C13.354 36.2219 7.21367 32.946 3.77355 27.9908V27.9908Z" fill="#25918B"/>
<path fill-rule="evenodd" clip-rule="evenodd" d="M32.5193 7.77937C33.3962 9.58142 33.9454 11.5719 34.0915 13.6735C32.1705 6.20879 25.1049 0.136647 14.7861 1.83732V0.613503C22.939 -0.451653 29.0793 2.82403 32.5193 7.77937Z" fill="#25918B"/>
<path fill-rule="evenodd" clip-rule="evenodd" d="M21.5069 33.9327C11.1858 35.6338 4.11928 29.5587 2.20017 22.0917C2.17442 21.7201 2.16124 21.3449 2.16124 20.9666C2.16124 20.79 2.16509 20.6144 2.17086 20.4391C2.3159 21.368 2.54249 22.2899 2.85107 23.1937C4.02664 26.6374 6.32108 29.6006 9.42331 31.5183C13.0472 33.7584 17.3398 34.2813 21.4979 33.596L21.5069 33.9327V33.9327Z" fill="#E4DDD0"/>
<path fill-rule="evenodd" clip-rule="evenodd" d="M14.7861 1.83731C25.1072 0.13635 32.1736 6.21145 34.0928 13.6784C34.1186 14.0501 34.1316 14.4252 34.1316 14.8034C34.1316 14.98 34.1278 15.1558 34.1221 15.3311C33.9771 14.4022 33.7505 13.4803 33.4419 12.5765C32.2664 9.13283 29.9719 6.16957 26.8695 4.25193C23.2456 2.01181 18.953 1.48892 14.795 2.17416L14.7861 1.83731V1.83731Z" fill="#E4DDD0"/>
<path fill-rule="evenodd" clip-rule="evenodd" d="M2.16746 20.5272C2.25833 17.1381 3.39867 14.0109 5.27487 11.4581C-0.194026 20.6299 6.52029 34.7715 21.4979 32.303V33.596C10.7309 35.4653 3.46646 28.498 2.16746 20.5272V20.5272Z" fill="#DFCDA6"/>
<path fill-rule="evenodd" clip-rule="evenodd" d="M34.1255 15.2429C34.0345 18.6321 32.8942 21.7591 31.018 24.3121C36.487 15.1403 29.7726 0.998599 14.795 3.46724V2.17416C25.562 0.304923 32.8265 7.27217 34.1255 15.2429V15.2429Z" fill="#DFCDA6"/>
<path fill-rule="evenodd" clip-rule="evenodd" d="M16.0407 16.652L13.2799 21.5331H14.1318V27.9421C14.1318 28.5919 14.6634 29.1236 15.3131 29.1236H20.326C20.9757 29.1236 21.5074 28.5919 21.5074 27.9421V21.5331H27.9165C28.5662 21.5331 29.0978 21.0015 29.0978 20.3517V18.2927H21.5309C21.3634 18.2927 21.2195 18.2077 21.1388 18.0609L19.9266 15.8565L18.3385 20.7939C18.2786 20.9802 18.1137 21.1019 17.9181 21.1044C17.7224 21.1068 17.5546 20.9891 17.49 20.8044L16.0407 16.652V16.652Z" fill="#44BBC3"/>
<path fill-rule="evenodd" clip-rule="evenodd" d="M21.3789 7.21416L16.6269 15.6157L17.8951 19.2495L19.3926 14.5943C19.4484 14.4204 19.5939 14.3034 19.7758 14.2859C19.9574 14.2684 20.1225 14.3557 20.2106 14.5156L21.7955 17.3979H29.0978V15.3389C29.0978 14.689 28.5662 14.1576 27.9165 14.1576H21.5074V7.74844C21.5074 7.55648 21.461 7.37474 21.3789 7.21416V7.21416Z" fill="#D4AF8C"/>
</svg>
