<svg xmlns="http://www.w3.org/2000/svg" width="25" height="25" viewBox="0 0 2500 2500" style="image-rendering:optimizeQuality;shape-rendering:geometricPrecision;text-rendering:geometricPrecision"><defs><style type="text/css">
    .fil3 {fill:none}
    .fil4 {fill:#FEFEFE}
    .fil2 {fill:#F0E3C3}
    .fil7 {fill:#E4DDD0}
    .fil1 {fill:#E1C7AF}
    .fil8 {fill:#DFCDA6}
    .fil10 {fill:#D4AF8C}
    .fil0 {fill:#80CBD3}
    .fil9 {fill:#44BBC3}
    .fil5 {fill:#2CB7BE}
    .fil6 {fill:#25918B}
   </style>
    </defs>
        <path class="fil0" d="M1966.1 1303.6l0 139.1c0 43.9-35.9 79.8-79.8 79.8l-433 0 0 433c0 43.9-35.9 79.8-79.8 79.8l-338.7 0c-43.9 0-79.8-35.9-79.8-79.8l0-433-433 0c-43.9 0-79.8-35.9-79.8-79.8l0-139.1 512.9 0c11.3 0 21-5.7 26.5-15.7l83-151 117.4 336.3c4.4 12.5 15.7 20.4 28.9 20.3 13.2-0.2 24.4-8.4 28.4-21l107.3-333.6 81.9 149c5.5 9.9 15.2 15.7 26.5 15.7l511.3 0z"/><path class="fil1" d="M1966.1 1104l0 139.1-493.4 0-107.1-194.7c-5.9-10.8-17.1-16.7-29.4-15.5-12.3 1.2-22.1 9.1-25.9 20.8l-101.2 314.5-110-315.2c-4-11.5-13.9-19.1-26-20.2-12.2-1-23.1 4.9-29 15.6l-107.1 194.8-493.6 0-1.4-0.1 0-139c0-43.9 35.9-79.8 79.8-79.8l433.1 0 0-433c0-43.9 35.9-79.8 79.8-79.8l338.7 0c43.9 0 79.8 35.9 79.8 79.8l0 433.1 433.1 0c43.9 0 79.8 35.9 79.8 79.8z"/><path class="fil2" d="M1452.6 2337.6c-1277.3 221.7-1825.8-1396.8-742.3-1991.8 0 179 0 358 0 537-234.6-169.7-271-136.5-330.5-78.2l-0.4 0.6c-410.4 617.8 41.1 1615.2 1073.2 1445.1l0 87.4z"/><path class="fil2" d="M999.7 214.5c1277.3-221.7 1825.8 1396.8 742.3 1991.8 0-179 0-358 0-537 234.6 169.7 271 136.5 330.5 78.2l0.4-0.5c410.4-617.8-41.1-1615.2-1073.2-1445.1l0-87.4z"/><path class="fil3" d="M999 213.9c1277.3-221.7 1825.8 1396.8 742.3 1991.8 0-179 0-358 0-537 234.6 169.7 271.1 136.5 330.5 78.2l0.4-0.5c410.4-617.8-41.1-1615.2-1073.2-1445.1l0-87.4z"/><path class="fil4" d="M1456.1 2465.5c-322.5 42.1-646.6-10.1-918.7-194.9-231.8-157.5-397.1-393.7-472-663.1-67.3-242.1-58.2-502.6 30.2-738.2 99.6-265.4 288.5-475 530.1-620.4l34.4-20.7 0 560.6-38.6-38.3c-60.3-59.7-149.4-124.6-239.3-95.8-32.7 10.5-68.2 36.5-87.5 65.4l-0.1 0.1c-172.4 273.8-206.1 609.3-101.9 914.5 79.4 232.7 234.5 432.9 444.1 562.5 244.9 151.4 531.8 187.1 812.8 140.8l26.4-4.3 0 129.3-19.7 2.6z"/><path class="fil4" d="M996.1 86.5c322.5-42.1 646.6 10.1 918.7 194.9 231.8 157.5 397.1 393.7 472 663.2 67.3 242.1 58.2 502.7-30.2 738.2-99.6 265.4-288.5 475.1-530.1 620.4l-34.4 20.7 0-560.6 38.7 38.3c60.3 59.7 149.4 124.6 239.3 95.8 32.8-10.5 68.3-36.5 87.5-65.4l0.1-0.1c172.4-273.8 206.1-609.3 101.9-914.5-79.4-232.7-234.5-432.9-444.1-562.5-244.9-151.4-531.8-187.1-812.8-140.8l-26.4 4.3 0-129.3 19.8-2.6z"/><path class="fil3" d="M995.5 86c322.5-42.1 646.6 10.1 918.7 194.9 231.8 157.5 397.1 393.7 472 663.2 67.3 242.1 58.2 502.7-30.2 738.2-99.6 265.4-288.5 475-530.1 620.4l-34.4 20.7 0-560.6 38.7 38.3c60.3 59.7 149.4 124.6 239.3 95.8 32.8-10.5 68.3-36.5 87.5-65.4l0.1-0.1c172.4-273.8 206.1-609.3 101.9-914.5-79.4-232.7-234.5-432.9-444.1-562.5-244.9-151.4-531.8-187.1-812.8-140.8l-26.4 4.3 0-129.3 19.7-2.6z"/><path class="fil5" d="M1453.2 2443c-1393.4 182-1917.9-1511.8-815.7-2174.7l0 48.8 0 26.1 0 391.2c-224.8-222.6-353.8-38.6-361.7-26.9l-0.3 0.4-0.1 0.2c-458.9 740.3 93.9 1830.8 1177.8 1652.2l0 82.7z"/><path class="fil5" d="M999.1 109c1393.4-182 1917.9 1511.8 815.7 2174.7l0-48.8 0-26.1 0-391.2c224.8 222.6 353.9 38.6 361.7 26.9l0.3-0.4 0.1-0.1c459-740.3-93.9-1830.8-1177.8-1652.2l0-82.7z"/><path class="fil3" d="M998.4 108.5c1393.4-182 1917.9 1511.8 815.7 2174.7l0-48.8 0-26.1 0-391.2c224.8 222.6 353.9 38.6 361.7 26.9l0.3-0.4 0.1-0.1c458.9-740.3-93.9-1830.8-1177.8-1652.2l0-82.7z"/><path class="fil6" d="M255 1958.8c-59.2-121.8-96.4-256.3-106.2-398.3 129.8 504.4 607.2 914.7 1304.4 799.7l0 82.7c-550.9 72-965.8-149.4-1198.2-484.2z"/><path class="fil6" d="M2197.3 593.2c59.3 121.8 96.4 256.3 106.2 398.3-129.8-504.4-607.2-914.6-1304.4-799.7l0-82.7c550.9-72 965.8 149.4 1198.2 484.2z"/><path class="fil7" d="M1453.2 2360.3c-697.4 114.9-1174.8-295.5-1304.5-800.1-1.7-25.1-2.6-50.5-2.6-76 0-11.9 0.3-23.8 0.7-35.6 9.8 62.8 25.1 125.1 46 186.1 79.4 232.7 234.5 432.9 444.1 562.5 244.9 151.4 534.9 186.7 815.9 140.4l0.6 22.8z"/><path class="fil7" d="M999.1 191.7c697.4-114.9 1174.8 295.6 1304.5 800.1 1.7 25.1 2.6 50.5 2.6 76 0 11.9-0.3 23.8-0.6 35.7-9.8-62.8-25.1-125-46-186.1-79.4-232.7-234.5-432.9-444.1-562.5-244.9-151.4-534.9-186.7-815.8-140.4l-0.6-22.8z"/><path class="fil3" d="M2119.5 459.1c117.5 173.5 186.1 382.8 186.1 608.1 0 11.9-0.3 23.8-0.6 35.7-9.8-62.8-25.1-125-46-186.1-79.4-232.7-234.5-432.9-444.1-562.5-244.9-151.4-531.8-187.1-812.8-140.8l-26.4 4.3 0-129.3 19.7-2.6c322.5-42.1 646.6 10.1 918.7 194.9 75.8 51.5 144.5 111.5 205.3 178.2z"/><path class="fil8" d="M146.5 1454.5c6.1-229 83.2-440.3 210-612.8-369.5 619.7 84.2 1575.2 1096.2 1408.4l0 87.4c-727.5 126.3-1218.3-344.5-1306.1-883z"/><path class="fil8" d="M2305.8 1097.5c-6.1 229-83.2 440.3-210 612.8 369.5-619.7-84.1-1575.2-1096.1-1408.4l0-87.4c727.5-126.3 1218.4 344.5 1306.1 883z"/><path class="fil9" d="M1083.8 1192.7l-186.5 329.8 57.6 0 0 433c0 43.9 35.9 79.8 79.8 79.8l338.7 0c43.9 0 79.8-35.9 79.8-79.8l0-433 433.1 0c43.9 0 79.8-35.9 79.8-79.8l0-139.1-511.3 0c-11.3 0-21-5.7-26.5-15.7l-81.9-148.9-107.3 333.6c-4 12.6-15.2 20.8-28.4 21-13.2 0.2-24.6-7.8-28.9-20.3l-97.9-280.6z"/><path class="fil10" d="M1444.5 555l-321.1 567.7 85.7 245.5 101.2-314.5c3.8-11.7 13.6-19.7 25.9-20.8 12.3-1.2 23.4 4.7 29.4 15.5l107.1 194.8 493.4 0 0-139.1c0-43.9-35.9-79.8-79.8-79.8l-433 0 0-433c0-13-3.1-25.2-8.7-36.1z"/></svg>