<?xml version="1.0" encoding="UTF-8"?>
<!DOCTYPE svg PUBLIC "-//W3C//DTD SVG 1.1//EN" "http://www.w3.org/Graphics/SVG/1.1/DTD/svg11.dtd">
<!-- Creator: CorelDRAW 2019 (64-Bit) -->
<svg xmlns="http://www.w3.org/2000/svg" xml:space="preserve" width="25mm" height="25mm" version="1.1" style="shape-rendering:geometricPrecision; text-rendering:geometricPrecision; image-rendering:optimizeQuality; fill-rule:evenodd; clip-rule:evenodd"
viewBox="0 0 2500 2500">
 <defs>
  <style type="text/css">
   <![CDATA[
    .fil3 {fill:none}
    .fil4 {fill:#FEFEFE}
    .fil2 {fill:#F0E3C3}
    .fil7 {fill:#E4DDD0}
    .fil1 {fill:#E1C7AF}
    .fil8 {fill:#DFCDA6}
    .fil10 {fill:#D4AF8C}
    .fil0 {fill:#80CBD3}
    .fil9 {fill:#44BBC3}
    .fil5 {fill:#2CB7BE}
    .fil6 {fill:#25918B}
   ]]>
  </style>
 </defs>
 <g id="Слой_x0020_1">
  <metadata id="CorelCorpID_0Corel-Layer"/>
  <g id="_1623853239616">
   <path class="fil0" d="M1966.07 1303.56l0 139.12c0,43.91 -35.92,79.83 -79.82,79.83l-433.05 0 0 433.04c0,43.9 -35.92,79.83 -79.82,79.83l-338.71 0c-43.9,0 -79.82,-35.93 -79.82,-79.83l0 -433.04 -433.05 0c-43.9,0 -79.82,-35.92 -79.82,-79.83l0 -139.12 512.87 0c11.32,0 21.04,-5.74 26.49,-15.66l83.02 -150.97 117.4 336.34c4.36,12.48 15.7,20.43 28.92,20.27 13.22,-0.17 24.36,-8.39 28.41,-20.98l107.3 -333.61 81.91 148.95c5.45,9.92 15.17,15.66 26.49,15.66l511.28 0z"/>
   <path class="fil1" d="M1966.07 1103.98l0 139.12 -493.4 0 -107.09 -194.75c-5.95,-10.8 -17.11,-16.7 -29.38,-15.52 -12.29,1.18 -22.12,9.09 -25.89,20.84l-101.18 314.54 -110.03 -315.25c-4.02,-11.52 -13.86,-19.14 -26.02,-20.16 -12.17,-1.02 -23.13,4.86 -29.02,15.55l-107.09 194.75 -493.63 0 -1.36 -0.12 0 -139c0,-43.91 35.92,-79.82 79.82,-79.82l433.05 0 0 -433.05c0,-43.9 35.92,-79.83 79.82,-79.83l338.71 0c43.9,0 79.82,35.93 79.82,79.83l0 433.05 433.05 0c43.9,0 79.82,35.91 79.82,79.82z"/>
   <path class="fil2" d="M1452.56 2337.57c-1277.27,221.74 -1825.76,-1396.82 -742.32,-1991.83 0,178.99 0,357.99 0,536.99 -234.63,-169.67 -271.05,-136.52 -330.53,-78.18l-0.36 0.55c-410.43,617.83 41.07,1615.21 1073.21,1445.1l0 87.37z"/>
   <path class="fil2" d="M999.66 214.47c1277.27,-221.74 1825.77,1396.82 742.33,1991.83 0,-178.99 0,-358 0,-536.99 234.62,169.67 271.04,136.51 330.52,78.18l0.36 -0.55c410.44,-617.83 -41.06,-1615.21 -1073.21,-1445.1l0 -87.37z"/>
   <path class="fil3" d="M999.03 213.93c1277.27,-221.74 1825.76,1396.82 742.32,1991.83 0,-178.99 0,-358 0,-536.99 234.62,169.67 271.05,136.52 330.53,78.18l0.36 -0.55c410.43,-617.83 -41.07,-1615.21 -1073.21,-1445.1l0 -87.37z"/>
   <path class="fil4" d="M1456.11 2465.51c-322.5,42.14 -646.58,-10.06 -918.71,-194.92 -231.81,-157.47 -397.08,-393.69 -471.97,-663.15 -67.28,-242.08 -58.22,-502.65 30.19,-738.19 99.63,-265.4 288.52,-475.04 530.12,-620.36l34.38 -20.68 0 560.61 -38.65 -38.27c-60.3,-59.72 -149.44,-124.62 -239.33,-95.83 -32.75,10.49 -68.25,36.52 -87.53,65.44l-0.06 0.08c-172.4,273.8 -206.09,609.32 -101.91,914.47 79.43,232.68 234.46,432.89 444.07,562.47 244.87,151.36 531.82,187.06 812.77,140.76l26.37 -4.34 0 129.33 -19.74 2.58z"/>
   <path class="fil4" d="M996.12 86.52c322.49,-42.13 646.57,10.07 918.7,194.93 231.81,157.46 397.09,393.69 471.98,663.15 67.27,242.07 58.22,502.65 -30.2,738.18 -99.62,265.41 -288.51,475.05 -530.11,620.37l-34.38 20.68 0 -560.61 38.65 38.27c60.29,59.72 149.43,124.62 239.32,95.83 32.76,-10.49 68.26,-36.52 87.54,-65.44l0.06 -0.08c172.39,-273.81 206.09,-609.32 101.91,-914.47 -79.43,-232.68 -234.46,-432.89 -444.08,-562.47 -244.86,-151.36 -531.82,-187.07 -812.77,-140.76l-26.37 4.34 0 -129.34 19.75 -2.58z"/>
   <path class="fil3" d="M995.48 85.99c322.5,-42.14 646.58,10.06 918.71,194.92 231.81,157.47 397.08,393.69 471.97,663.15 67.28,242.08 58.22,502.65 -30.19,738.19 -99.63,265.4 -288.52,475.04 -530.12,620.36l-34.38 20.68 0 -560.61 38.65 38.27c60.29,59.72 149.44,124.62 239.32,95.83 32.76,-10.49 68.26,-36.52 87.54,-65.44l0.06 -0.08c172.4,-273.8 206.09,-609.32 101.91,-914.47 -79.43,-232.68 -234.46,-432.89 -444.07,-562.47 -244.87,-151.36 -531.82,-187.06 -812.77,-140.76l-26.37 4.34 0 -129.33 19.74 -2.58z"/>
   <path class="fil5" d="M1453.17 2443.02c-1393.37,182.04 -1917.9,-1511.76 -815.74,-2174.69l0 48.79 0 26.13 0 391.18c-224.78,-222.64 -353.85,-38.58 -361.7,-26.86l-0.28 0.43 -0.1 0.15c-458.95,740.26 93.93,1830.81 1177.82,1652.17l0 82.7z"/>
   <path class="fil5" d="M999.06 109.02c1393.36,-182.05 1917.89,1511.76 815.73,2174.69l0 -48.79 0 -26.14 0 -391.17c224.78,222.63 353.86,38.58 361.7,26.85l0.29 -0.42 0.09 -0.15c458.95,-740.26 -93.93,-1830.82 -1177.81,-1652.18l0 -82.69z"/>
   <path class="fil3" d="M998.42 108.48c1393.37,-182.04 1917.9,1511.76 815.74,2174.69l0 -48.79 0 -26.13 0 -391.18c224.78,222.63 353.85,38.58 361.7,26.86l0.28 -0.43 0.1 -0.15c458.94,-740.26 -93.94,-1830.82 -1177.82,-1652.17l0 -82.7z"/>
   <path class="fil6" d="M254.97 1958.84c-59.24,-121.77 -96.36,-256.26 -106.23,-398.26 129.8,504.38 607.21,914.65 1304.43,799.74l0 82.7c-550.87,71.97 -965.76,-149.37 -1198.2,-484.18z"/>
   <path class="fil6" d="M2197.25 593.2c59.25,121.76 96.36,256.25 106.23,398.25 -129.8,-504.37 -607.2,-914.65 -1304.42,-799.74l0 -82.69c550.87,-71.97 965.76,149.36 1198.19,484.18z"/>
   <path class="fil7" d="M1453.17 2360.32c-697.37,114.94 -1174.84,-295.54 -1304.51,-800.07 -1.74,-25.11 -2.63,-50.46 -2.63,-76.02 0,-11.93 0.26,-23.8 0.65,-35.64 9.8,62.76 25.11,125.05 45.96,186.12 79.43,232.68 234.46,432.9 444.07,562.47 244.86,151.36 534.9,186.69 815.85,140.39l0.61 22.75z"/>
   <path class="fil7" d="M999.06 191.71c697.37,-114.93 1174.83,295.55 1304.51,800.07 1.74,25.12 2.62,50.46 2.62,76.02 0,11.93 -0.26,23.81 -0.64,35.65 -9.8,-62.76 -25.11,-125.05 -45.96,-186.12 -79.43,-232.68 -234.46,-432.9 -444.08,-562.47 -244.86,-151.36 -534.9,-186.69 -815.85,-140.39l-0.6 -22.76z"/>
   <path class="fil3" d="M2119.48 459.13c117.46,173.52 186.08,382.81 186.08,608.13 0,11.94 -0.27,23.81 -0.65,35.65 -9.8,-62.76 -25.11,-125.05 -45.96,-186.12 -79.43,-232.68 -234.46,-432.89 -444.07,-562.47 -244.87,-151.36 -531.82,-187.06 -812.77,-140.76l-26.37 4.34 0 -129.33 19.74 -2.58c322.5,-42.14 646.58,10.06 918.71,194.92 75.82,51.51 144.53,111.45 205.29,178.22z"/>
   <path class="fil8" d="M146.45 1454.54c6.14,-228.99 83.19,-440.29 209.96,-612.78 -369.52,619.72 84.15,1575.23 1096.15,1408.44l0 87.37c-727.5,126.3 -1218.34,-344.46 -1306.11,-883.03z"/>
   <path class="fil8" d="M2305.78 1097.49c-6.15,229 -83.2,440.29 -209.97,612.79 369.53,-619.72 -84.15,-1575.24 -1096.15,-1408.44l0 -87.37c727.5,-126.3 1218.35,344.46 1306.12,883.02z"/>
   <path class="fil9" d="M1083.83 1192.7l-186.54 329.81 57.56 0 0 433.04c0,43.9 35.92,79.83 79.82,79.83l338.71 0c43.9,0 79.82,-35.93 79.82,-79.83l0 -433.04 433.05 0c43.9,0 79.82,-35.92 79.82,-79.83l0 -139.12 -511.28 0c-11.32,0 -21.04,-5.74 -26.49,-15.66l-81.91 -148.95 -107.3 333.61c-4.05,12.59 -15.19,20.81 -28.41,20.98 -13.22,0.16 -24.56,-7.79 -28.92,-20.27l-97.93 -280.57z"/>
   <path class="fil10" d="M1444.52 555.01l-321.08 567.67 85.69 245.53 101.18 -314.54c3.77,-11.75 13.6,-19.66 25.89,-20.84 12.27,-1.18 23.43,4.72 29.38,15.52l107.09 194.75 493.4 0 0 -139.12c0,-43.91 -35.92,-79.82 -79.82,-79.82l-433.05 0 0 -433.05c0,-12.97 -3.13,-25.25 -8.68,-36.1z"/>
  </g>
 </g>
</svg>
